<?xml version="1.0" encoding="UTF-8" standalone="no"?><!DOCTYPE svg PUBLIC "-//W3C//DTD SVG 1.1//EN" "http://www.w3.org/Graphics/SVG/1.1/DTD/svg11.dtd"><svg width="100%" height="100%" viewBox="0 0 512 512" version="1.1" xmlns="http://www.w3.org/2000/svg" xmlns:xlink="http://www.w3.org/1999/xlink" xml:space="preserve" xmlns:serif="http://www.serif.com/" style="fill-rule:evenodd;clip-rule:evenodd;stroke-linecap:round;stroke-linejoin:round;stroke-miterlimit:1.5;"><rect id="Artboard1" x="0" y="0" width="512" height="512" style="fill:none;"/><g id="Artboard11" serif:id="Artboard1"><path d="M477.947,80l-117.947,0c-74.261,0 -145.48,29.5 -197.99,82.01c-52.51,52.51 -82.01,123.729 -82.01,197.99l0,114.275c-9.809,0.882 -19.71,1.442 -29.693,1.669c-2.686,0.052 -5.279,-0.979 -7.196,-2.859c-1.917,-1.881 -2.997,-4.454 -2.997,-7.139l-0,-419.892c-0,-5.523 4.477,-10 10,-10c58.958,0 360.636,0 419.891,0.006c2.684,-0 5.256,1.079 7.135,2.995c1.88,1.916 2.91,4.508 2.858,7.192c-0.258,11.362 -0.947,22.619 -2.051,33.753Zm-317.947,379.527l0,-99.527c-0,-53.043 21.071,-103.914 58.579,-141.421c37.507,-37.508 88.378,-58.579 141.421,-58.579l102.415,0c-42.399,144.697 -157.145,258.479 -302.415,299.527Z" style="fill:url(#_Radial1);"/><circle cx="360" cy="360" r="120" style="fill:#ceff90;"/><path d="M100,80l-40,-0l20,-0l-0,20l-0,-40" style="fill:none;stroke:#22d1b8;stroke-width:20px;"/><path d="M180,80l-40,-0l20,0l-0,20l-0,-40" style="fill:none;stroke:#22d1b8;stroke-width:20px;"/><path d="M260.057,80l-40,-0l20,0l-0,20l-0,-40" style="fill:none;stroke:#22d1b8;stroke-width:20px;"/><path d="M340,80l-40,-0l20,0l-0,20l-0,-40" style="fill:none;stroke:#22d1b8;stroke-width:20px;"/></g><defs><radialGradient id="_Radial1" cx="0" cy="0" r="1" gradientUnits="userSpaceOnUse" gradientTransform="matrix(296,301,-301,296,40.1139,36.0543)"><stop offset="0" style="stop-color:#62ffc8;stop-opacity:0.12"/><stop offset="0.59" style="stop-color:#62ffc8;stop-opacity:0.2"/><stop offset="0.8" style="stop-color:#62ffc8;stop-opacity:0.37"/><stop offset="1" style="stop-color:#62ffc8;stop-opacity:0.55"/></radialGradient></defs></svg>