<?xml version="1.0" encoding="UTF-8" standalone="no"?><!DOCTYPE svg PUBLIC "-//W3C//DTD SVG 1.1//EN"
  "http://www.w3.org/Graphics/SVG/1.1/DTD/svg11.dtd">
<svg width="100%" height="100%" viewBox="0 0 736 736" version="1.1" xmlns="http://www.w3.org/2000/svg"
     xmlns:xlink="http://www.w3.org/1999/xlink" xml:space="preserve" xmlns:serif="http://www.serif.com/"
     style="fill-rule:evenodd;clip-rule:evenodd;stroke-linecap:round;stroke-linejoin:round;stroke-miterlimit:1.5;"><rect id="icon" x="0" y="0" width="736" height="736" style="fill:none;"/>
  <path
    d="M704,132c-0,-55.192 -44.808,-100 -100,-100l-472,0c-55.192,0 -100,44.808 -100,100l0,472c0,55.192 44.808,100 100,100l472,-0c55.192,-0 100,-44.808 100,-100l-0,-472Z"
    style="fill:#69483b;"/>
  <path
    d="M585.479,192l-113.479,0c-74.261,0 -145.48,29.5 -197.99,82.01c-52.51,52.51 -82.01,123.729 -82.01,197.99l0,113.473c-19.371,3.25 -39.136,5.339 -59.22,6.194c-5.43,0.212 -10.713,-1.797 -14.63,-5.564c-3.917,-3.767 -6.13,-8.967 -6.13,-14.401c-0.02,-78.668 -0.02,-361.742 -0.02,-439.702c0,-11.046 8.954,-20 20,-20c77.961,0 361.038,0 439.707,0c5.44,-0 10.645,2.216 14.416,6.137c3.771,3.921 5.782,9.208 5.569,14.644c-0.875,20.083 -2.964,39.848 -6.213,59.219Zm-313.479,372.803l0,-92.803c-0,-53.043 21.071,-103.914 58.579,-141.421c37.507,-37.508 88.378,-58.579 141.421,-58.579l92.807,0c-48.215,136.447 -156.359,244.589 -292.807,292.803Z"
    style="fill:url(#_Radial1);"/>
  <circle cx="472" cy="472" r="100" style="fill:#f9f5f0;"/>
  <path d="M212,192l-40,-0l20,-0l-0,20l-0,-40" style="fill:none;stroke:#ffdb68;stroke-width:20px;"/>
  <path d="M292,192l-40,-0l20,0l-0,20l-0,-40" style="fill:none;stroke:#ffdb68;stroke-width:20px;"/>
  <path d="M372.057,192l-40,-0l20,0l-0,20l-0,-40" style="fill:none;stroke:#ffdb68;stroke-width:20px;"/>
  <path d="M452,192l-40,-0l20,0l-0,20l-0,-40" style="fill:none;stroke:#ffdb68;stroke-width:20px;"/>
  <defs><radialGradient id="_Radial1" cx="0" cy="0" r="1" gradientUnits="userSpaceOnUse" gradientTransform="matrix(-559.681,101.006,-101,-559.682,212,32)"><stop offset="0" style="stop-color:#937052;stop-opacity:1"/><stop
    offset="0.53" style="stop-color:#a48161;stop-opacity:1"/><stop offset="1"
                                                                   style="stop-color:#debd94;stop-opacity:1"/></radialGradient></defs></svg>
